<svg width="20" height="20" viewBox="0 0 20 20" fill="none" xmlns="http://www.w3.org/2000/svg">
<path fill-rule="evenodd" clip-rule="evenodd" d="M3.75 4.375C3.75 3.33947 4.58947 2.5 5.625 2.5H14.375C15.4105 2.5 16.25 3.33947 16.25 4.375V16.607C16.25 17.7232 14.8983 18.2797 14.1124 17.4871L10 13.3396L5.88764 17.4871C5.10173 18.2797 3.75 17.7232 3.75 16.607V4.375ZM5.625 3.75C5.27982 3.75 5 4.02982 5 4.375V16.607L9.55618 12.0119C9.67354 11.8935 9.83332 11.8269 10 11.8269C10.1667 11.8269 10.3265 11.8935 10.4438 12.0119L15 16.607V4.375C15 4.02982 14.7202 3.75 14.375 3.75H5.625Z" fill="#B0B0B0"/>
</svg>
