<svg width="20" height="20" viewBox="0 0 20 20" fill="none" xmlns="http://www.w3.org/2000/svg">
<path d="M5.9375 2.5C7.67404 2.5 9.19003 3.44429 10 4.84739C10.81 3.44429 12.326 2.5 14.0625 2.5C16.6513 2.5 18.75 4.59867 18.75 7.1875C18.75 8.46588 18.2013 9.6095 17.4603 10.6386C16.7276 11.6563 15.7604 12.6235 14.8378 13.5461L14.8169 13.5669C14.3248 14.0591 13.2073 15.0159 12.2379 15.8301C11.748 16.2417 11.2876 16.6237 10.9498 16.9028C10.7809 17.0423 10.6425 17.1562 10.5463 17.2352L10.3965 17.3582L10.3958 17.3587C10.1473 17.5621 9.78511 17.544 9.55806 17.3169C9.51018 17.2691 9.33136 17.1211 9.01195 16.8635C8.94181 16.8069 8.86656 16.7464 8.78692 16.6823L8.78527 16.6809C8.52417 16.4709 8.21584 16.2228 7.88548 15.9525C7.02396 15.2476 5.98779 14.3717 5.18306 13.5669L5.16223 13.5461C4.23961 12.6235 3.27241 11.6563 2.53967 10.6386C1.79869 9.6095 1.25 8.46588 1.25 7.1875C1.25 4.59867 3.34867 2.5 5.9375 2.5Z" fill="#F75961"/>
</svg>
