<svg width="20" height="20" viewBox="0 0 20 20" fill="none" xmlns="http://www.w3.org/2000/svg">
<path fill-rule="evenodd" clip-rule="evenodd" d="M5.9375 3.75C4.03902 3.75 2.5 5.28902 2.5 7.1875C2.5 8.09662 2.88881 8.98425 3.55408 9.90825C4.22208 10.836 5.12081 11.7369 6.06694 12.6831C6.82471 13.4408 7.81979 14.2837 8.67702 14.985C9.0031 15.2518 9.30576 15.4953 9.56639 15.705C9.64738 15.7702 9.72432 15.8321 9.79664 15.8904C9.86954 15.9492 9.94014 16.0063 10.0067 16.0604C10.0525 16.0226 10.1017 15.982 10.1537 15.939C10.4897 15.6614 10.9473 15.2817 11.4339 14.873C12.4177 14.0466 13.4877 13.1284 13.9331 12.6831C14.8792 11.7369 15.7779 10.836 16.4459 9.90825C17.1112 8.98425 17.5 8.09662 17.5 7.1875C17.5 5.28902 15.961 3.75 14.0625 3.75C12.164 3.75 10.625 5.28902 10.625 7.1875C10.625 7.53268 10.3452 7.8125 10 7.8125C9.65482 7.8125 9.375 7.53268 9.375 7.1875C9.375 5.28902 7.83598 3.75 5.9375 3.75ZM10 4.84739C9.19003 3.44429 7.67404 2.5 5.9375 2.5C3.34867 2.5 1.25 4.59867 1.25 7.1875C1.25 8.46588 1.79869 9.6095 2.53967 10.6386C3.27241 11.6563 4.23961 12.6235 5.16223 13.5461L5.18306 13.5669C5.98779 14.3717 7.02396 15.2476 7.88548 15.9525C8.21586 16.2228 8.52408 16.4708 8.78519 16.6809C8.86547 16.7455 8.9413 16.8065 9.01195 16.8635C9.33136 17.1211 9.51018 17.2691 9.55806 17.3169C9.78511 17.544 10.1473 17.5621 10.3958 17.3587L10 16.875C10.3958 17.3587 10.3957 17.3588 10.3958 17.3587L10.396 17.3586L10.4351 17.3265C10.4607 17.3056 10.4982 17.2747 10.5463 17.2352C10.6425 17.1562 10.7809 17.0423 10.9498 16.9028C11.2876 16.6237 11.748 16.2417 12.2379 15.8301C13.2073 15.0159 14.3248 14.0591 14.8169 13.5669L14.8378 13.5461C15.7604 12.6235 16.7276 11.6563 17.4603 10.6386C18.2013 9.6095 18.75 8.46588 18.75 7.1875C18.75 4.59867 16.6513 2.5 14.0625 2.5C12.326 2.5 10.81 3.44429 10 4.84739Z" fill="#B0B0B0"/>
</svg>
