<svg width="14" height="16" viewBox="0 0 14 16" fill="none" xmlns="http://www.w3.org/2000/svg">
<path fill-rule="evenodd" clip-rule="evenodd" d="M0.75 2.375C0.75 1.33947 1.58947 0.5 2.625 0.5H11.375C12.4105 0.5 13.25 1.33947 13.25 2.375V14.607C13.25 15.7232 11.8983 16.2797 11.1124 15.4871L7 11.3396L2.88764 15.4871C2.10173 16.2797 0.75 15.7232 0.75 14.607V2.375ZM2.625 1.75C2.27982 1.75 2 2.02982 2 2.375V14.607L6.55618 10.0119C6.67354 9.8935 6.83332 9.82692 7 9.82692C7.16668 9.82692 7.32646 9.8935 7.44382 10.0119L12 14.607V2.375C12 2.02982 11.7202 1.75 11.375 1.75H2.625Z" fill="#B0B0B0"/>
</svg>
