<svg width="18" height="18" viewBox="0 0 18 18" fill="none" xmlns="http://www.w3.org/2000/svg">
<path fill-rule="evenodd" clip-rule="evenodd" d="M8.375 0.25C3.88769 0.25 0.25 3.88769 0.25 8.375C0.25 12.8623 3.88769 16.5 8.375 16.5C10.3937 16.5 12.2404 15.7638 13.6614 14.5453L16.6831 17.5669C16.9271 17.811 17.3229 17.811 17.5669 17.5669C17.811 17.3229 17.811 16.9271 17.5669 16.6831L14.5453 13.6614C15.7638 12.2404 16.5 10.3937 16.5 8.375C16.5 3.88769 12.8623 0.25 8.375 0.25ZM1.5 8.375C1.5 4.57804 4.57804 1.5 8.375 1.5C12.172 1.5 15.25 4.57804 15.25 8.375C15.25 12.172 12.172 15.25 8.375 15.25C4.57804 15.25 1.5 12.172 1.5 8.375Z" fill="#717171"/>
</svg>
